<svg version="1.1" viewBox="0.0 0.0 960.0 720.0" fill="none" stroke="none" stroke-linecap="square" stroke-miterlimit="10" xmlns:xlink="http://www.w3.org/1999/xlink" xmlns="http://www.w3.org/2000/svg"><clipPath id="p.0"><path d="m0 0l960.0 0l0 720.0l-960.0 0l0 -720.0z" clip-rule="nonzero"/></clipPath><g clip-path="url(#p.0)"><path fill="#000000" fill-opacity="0.0" d="m0 0l960.0 0l0 720.0l-960.0 0z" fill-rule="evenodd"/><path fill="#d9d9d9" d="m118.23777 354.3663l0 0c0 -161.12663 161.96393 -291.74554 361.75653 -291.74554l0 0c199.79257 0 361.7565 130.61893 361.7565 291.74554l0 0c0 161.12662 -161.96393 291.7455 -361.7565 291.7455l0 0c-199.7926 0 -361.75653 -130.6189 -361.75653 -291.7455z" fill-rule="evenodd"/><path fill="#efefef" d="m277.2915 513.87775l0 0c0 -90.499084 90.7561 -163.8631 202.70941 -163.8631l0 0c111.95331 0 202.70941 73.36401 202.70941 163.8631l0 0c0 90.499084 -90.7561 163.8631 -202.70941 163.8631l0 0c-111.95331 0 -202.70941 -73.36401 -202.70941 -163.8631z" fill-rule="evenodd"/><path fill="#000000" d="m304.40964 357.67645l0 0c0 -13.233032 10.727509 -23.96054 23.96054 -23.96054l0 0c6.3547363 0 12.449188 2.524414 16.942657 7.0178833c4.4934998 4.493469 7.0178833 10.587921 7.0178833 16.942657l0 0c0 13.233032 -10.727478 23.96054 -23.96054 23.96054l0 0c-13.233032 0 -23.96054 -10.727509 -23.96054 -23.96054z" fill-rule="evenodd"/><path fill="#f3f3f3" d="m10.581141 495.58228l0 0c0 -90.499084 90.7561 -163.86307 202.70941 -163.86307l0 0c111.95334 0 202.70941 73.36398 202.70941 163.86307l0 0c0 90.499084 -90.75607 163.8631 -202.70941 163.8631l0 0c-111.953316 0 -202.70941 -73.36401 -202.70941 -163.8631z" fill-rule="evenodd"/><path fill="#000000" d="m605.953 357.67645l0 0c0 -13.233032 10.727478 -23.96054 23.960571 -23.96054l0 0c6.3546753 0 12.449158 2.524414 16.942627 7.0178833c4.493469 4.493469 7.0178833 10.587921 7.0178833 16.942657l0 0c0 13.233032 -10.727478 23.96054 -23.96051 23.96054l0 0c-13.233093 0 -23.960571 -10.727509 -23.960571 -23.96054z" fill-rule="evenodd"/><path fill="#f3f3f3" d="m544.0007 495.58228l0 0c0 -90.499084 90.7561 -163.86307 202.70941 -163.86307l0 0c111.95331 0 202.70941 73.36398 202.70941 163.86307l0 0c0 90.499084 -90.7561 163.8631 -202.70941 163.8631l0 0c-111.95331 0 -202.70941 -73.36401 -202.70941 -163.8631z" fill-rule="evenodd"/><path fill="#cccccc" d="m220.62675 121.25394l0 0c-16.002762 -29.917236 -11.387436 -63.578785 10.308594 -75.18518l0 0c10.418808 -5.5735855 23.463669 -5.2117195 36.264847 1.0059967c12.801178 6.2177124 24.310059 17.781948 31.994873 32.148716l0 0c16.002747 29.917229 11.387421 63.578773 -10.308624 75.18517l0 0c-21.696045 11.606384 -52.256943 -3.2374725 -68.25969 -33.15471z" fill-rule="evenodd"/><path fill="#cccccc" d="m678.28864 75.21504l0 0c19.036255 -28.070763 50.96924 -39.635796 71.3244 -25.831223l0 0c9.774902 6.6291885 15.517944 18.341797 15.96582 32.56118c0.44787598 14.219383 -4.4362183 29.780762 -13.577698 43.26082l0 0c-19.036255 28.070763 -50.9693 39.635796 -71.32446 25.83123l0 0c-20.355103 -13.804581 -21.424316 -47.751244 -2.3880615 -75.82201z" fill-rule="evenodd"/><path fill="#ead1dc" d="m240.37943 117.06889l0 0c-10.001724 -18.75048 -8.825623 -38.90464 2.6269073 -45.015587l0 0c5.499695 -2.934578 12.682114 -2.17202 19.967209 2.1199265c7.285095 4.291939 14.076141 11.761681 18.87912 20.765984l0 0c10.0017395 18.750473 8.825623 38.90464 -2.626892 45.01557l0 0c-11.452515 6.1109467 -28.84462 -4.1354218 -38.846344 -22.885895z" fill-rule="evenodd"/><path fill="#ead1dc" d="m691.3402 95.00455l0 0c12.375732 -18.266876 30.819214 -27.354958 41.19458 -20.298798l0 0c4.982483 3.3884811 7.3999634 10.122879 6.720764 18.721687c-0.67926025 8.598808 -4.399658 18.357658 -10.342712 27.129723l0 0c-12.375732 18.266876 -30.819214 27.354965 -41.19458 20.298798l0 0c-10.375427 -7.0561523 -8.753845 -27.584526 3.6219482 -45.85141z" fill-rule="evenodd"/><path fill="#ead1dc" d="m513.47406 362.82413l-33.473145 38.129913l-33.473114 -38.129913z" fill-rule="evenodd"/><path fill="#ead1dc" d="m99.33202 416.27765l0 0c0 -29.521576 31.933022 -53.45352 71.324425 -53.45352l0 0c39.391388 0 71.32442 23.931946 71.32442 53.45352l0 0c0 29.521545 -31.93303 53.45349 -71.32442 53.45349l0 0c-39.391403 0 -71.324425 -23.931946 -71.324425 -53.45349z" fill-rule="evenodd"/><path fill="#ead1dc" d="m718.021 416.27765l0 0c0 -29.521576 31.932983 -53.45352 71.3244 -53.45352l0 0c39.391357 0 71.3244 23.931946 71.3244 53.45352l0 0c0 29.521545 -31.933044 53.45349 -71.3244 53.45349l0 0c-39.39142 0 -71.3244 -23.931946 -71.3244 -53.45349z" fill-rule="evenodd"/><path fill="#ead1dc" d="m541.39905 499.0791c-15.265442 22.583313 -38.021362 35.700867 -62.05829 35.773254c-24.036896 0.07232666 -46.845947 -12.908081 -62.203094 -35.3992z" fill-rule="evenodd"/><path fill="#f1c232" d="m384.31793 599.9287l0 0c0 -52.84424 42.838715 -95.68295 95.68298 -95.68295l0 0c25.376709 0 49.71405 10.080841 67.65808 28.024872c17.94403 17.944092 28.024902 42.281433 28.024902 67.65808l0 0c0 52.8443 -42.838745 95.68298 -95.68298 95.68298l0 0c-52.84427 0 -95.68298 -42.838684 -95.68298 -95.68298z" fill-rule="evenodd"/><path fill="#000000" fill-opacity="0.0" d="m415.89642 512.6842l126.48938 0l0 174.49011l-126.48938 0z" fill-rule="evenodd"/><path fill="#ffffff" d="m487.54736 551.8767l0 10.3125q4.8125 0.1875 9.21875 1.1875q4.40625 1.0 7.59375 2.4375l-3.0 8.6875q-3.4375 -1.3125 -7.59375 -2.28125q-4.15625 -0.96875 -7.65625 -0.96875q-7.1875 0 -11.9375 3.0q-4.75 3.0 -7.09375 8.96875q-2.34375 5.96875 -2.34375 14.90625q0 8.875 2.3125 14.65625q2.3125 5.78125 6.90625 8.625q4.59375 2.84375 11.46875 2.84375q5.5 0 9.75 -1.0625q4.25 -1.0625 8.125 -2.6875l0 9.0625q-3.4375 1.6875 -7.15625 2.6875q-3.71875 1.0 -8.71875 1.125l0 12.4375l-8.0 0l0 -12.75q-7.8125 -1.125 -13.5 -5.03125q-5.6875 -3.90625 -8.75 -11.21875q-3.0625 -7.3125 -3.0625 -18.5625q0 -11.4375 3.125 -18.90625q3.125 -7.46875 8.8125 -11.5q5.6875 -4.03125 13.375 -5.15625l0 -10.8125l8.125 0z" fill-rule="nonzero"/></g></svg>